# xmcd
#
# Track frame offsets:
#	150
#	11853
#	25502
#	41761
#	56527
#	70120
#	86074
#	104361
#	120143
#	133367
#	151240
#	167180
#	183129
#
# Disc length: 2878 seconds
#
# Revision: 1
# Processed by: cddbd v1.4PL0 Copyright (c) Steve Scherf et al.
# Submitted via: audiograbber 1.80
#
DISCID=a30b3c0d
DTITLE=St. Thomas - Lets grow together - the comeback of St. Thomas
DYEAR=1900
DGENRE=
TTITLE0=Sunny Day
TTITLE1=You May Find A Treasure Everywere
TTITLE2=Paris, Texas
TTITLE3=Like You Know
TTITLE4=Come My Way
TTITLE5=Silence Break Your Heart
TTITLE6=Dance To The Disco
TTITLE7=Cool Yellow Flowershirt
TTITLE8=Waltzing Around Insane
TTITLE9=An Artist With A Brilliant Disguise
TTITLE10=Daily Song
TTITLE11=Let´s Grow Together
TTITLE12=Red Book
EXTD=
EXTT0=
EXTT1=
EXTT2=
EXTT3=
EXTT4=
EXTT5=
EXTT6=
EXTT7=
EXTT8=
EXTT9=
EXTT10=
EXTT11=
EXTT12=
PLAYORDER=
